<svg xmlns="http://www.w3.org/2000/svg" width="820" height="900" viewBox="0 0 820 900">
<style>text{font-family:Inter,-apple-system,BlinkMacSystemFont,"Segoe UI",sans-serif}.brand{font-size:15px;font-weight:750;fill:#152a3f}</style>
<rect width="820" height="900" fill="#f3f7f9"/>
<rect width="820" height="72" fill="#fff" stroke="#dce7eb"/>
<rect x="18" y="17" width="38" height="38" rx="11" fill="#087f83"/><path d="M27 28h20v17H27zM27 28l3-6h14l3 6" fill="none" stroke="white" stroke-width="2"/>
<text x="67" y="42" class="brand">Seller portal</text><path d="M27 29h14M27 35h14M27 41h14" stroke="#1d465a" stroke-width="2"/>
<rect x="613" y="15" width="42" height="42" rx="10" fill="#fff" stroke="#c9d9df"/><circle cx="634" cy="36" r="8" fill="none" stroke="#1d465a" stroke-width="1.5"/><path d="M626 36h16M634 28c-4 5-4 11 0 16M634 28c4 5 4 11 0 16" stroke="#1d465a" fill="none"/><circle cx="695" cy="36" r="15" fill="#d5f1ec"/><text x="691" y="41" font-size="12" fill="#087f83" font-weight="700">U</text>
<text x="24" y="99" font-size="12" font-weight="800" letter-spacing="1.2" fill="#087f83">SELLER PORTAL</text><text x="24" y="139" font-size="30" font-weight="780" letter-spacing="-1.1" fill="#142b40">Category codes</text>
<rect x="24" y="174" width="772" height="710" rx="14" fill="#fff" stroke="#dce7eb"/>
<text x="49" y="218" font-size="21" font-weight="750" fill="#173950">Category codes</text>
<text x="49" y="256" font-size="16" fill="#58717d">Manage categories available in product forms. Codes stay fixed; deactivate unused categories.</text>
<text x="49" y="300" font-size="13" font-weight="700" fill="#173950">Code</text><rect x="49" y="308" width="278" height="44" rx="9" fill="#fff" stroke="#c9d9df"/><text x="61" y="335" font-size="13" fill="#777">HOME_GOODS</text>
<text x="339" y="300" font-size="13" font-weight="700" fill="#173950">Display name</text><rect x="339" y="308" width="278" height="44" rx="9" fill="#fff" stroke="#c9d9df"/>
<rect x="629" y="306" width="142" height="47" rx="10" fill="#087f83"/><text x="647" y="335" font-size="15" font-weight="750" fill="#fff">Add category</text>
<rect x="49" y="386" width="722" height="74" rx="10" fill="#fff" stroke="#dce7eb"/>
<text x="61" y="406" font-size="15" font-weight="750" fill="#173950">LITTER_BOXES</text>
<rect x="61" y="412" width="286" height="44" rx="9" fill="#fff" stroke="#c9d9df"/><text x="73" y="439" font-size="14" fill="#173950">Automatic Litter Boxes</text>
<rect x="364" y="424" width="20" height="20" rx="2" fill="#087f83" stroke="none"/><path d="M368 445l4 4 8-10" fill="none" stroke="#fff" stroke-width="2"/>
<text x="392" y="439" font-size="13" font-weight="650" fill="#173950">Available for new products</text>
<rect x="692" y="416" width="67" height="44" rx="9" fill="#fff" stroke="#bed2d8"/><text x="708" y="443" font-size="14" font-weight="700" fill="#173950">Save</text>
<rect x="49" y="466" width="722" height="74" rx="10" fill="#fff" stroke="#dce7eb"/>
<text x="61" y="486" font-size="15" font-weight="750" fill="#173950">CAT_LITTER</text>
<rect x="61" y="492" width="286" height="44" rx="9" fill="#fff" stroke="#c9d9df"/><text x="73" y="519" font-size="14" fill="#173950">Cat Litter</text>
<rect x="364" y="504" width="20" height="20" rx="2" fill="#087f83" stroke="none"/><path d="M368 445l4 4 8-10" fill="none" stroke="#fff" stroke-width="2"/>
<text x="392" y="519" font-size="13" font-weight="650" fill="#173950">Available for new products</text>
<rect x="692" y="496" width="67" height="44" rx="9" fill="#fff" stroke="#bed2d8"/><text x="708" y="523" font-size="14" font-weight="700" fill="#173950">Save</text>
<rect x="49" y="546" width="722" height="74" rx="10" fill="#fff" stroke="#dce7eb"/>
<text x="61" y="566" font-size="15" font-weight="750" fill="#173950">ACCESSORIES</text>
<rect x="61" y="572" width="286" height="44" rx="9" fill="#fff" stroke="#c9d9df"/><text x="73" y="599" font-size="14" fill="#173950">Litter Box Accessories</text>
<rect x="364" y="584" width="20" height="20" rx="2" fill="#087f83" stroke="none"/><path d="M368 445l4 4 8-10" fill="none" stroke="#fff" stroke-width="2"/>
<text x="392" y="599" font-size="13" font-weight="650" fill="#173950">Available for new products</text>
<rect x="692" y="576" width="67" height="44" rx="9" fill="#fff" stroke="#bed2d8"/><text x="708" y="603" font-size="14" font-weight="700" fill="#173950">Save</text>
<rect x="49" y="626" width="722" height="74" rx="10" fill="#fff" stroke="#dce7eb"/>
<text x="61" y="646" font-size="15" font-weight="750" fill="#173950">ODOR_CONTROL</text>
<rect x="61" y="652" width="286" height="44" rx="9" fill="#fff" stroke="#c9d9df"/><text x="73" y="679" font-size="14" fill="#173950">Odor Control</text>
<rect x="364" y="664" width="20" height="20" rx="2" fill="#087f83" stroke="none"/><path d="M368 445l4 4 8-10" fill="none" stroke="#fff" stroke-width="2"/>
<text x="392" y="679" font-size="13" font-weight="650" fill="#173950">Available for new products</text>
<rect x="692" y="656" width="67" height="44" rx="9" fill="#fff" stroke="#bed2d8"/><text x="708" y="683" font-size="14" font-weight="700" fill="#173950">Save</text>
<rect x="49" y="706" width="722" height="74" rx="10" fill="#fff" stroke="#dce7eb"/>
<text x="61" y="726" font-size="15" font-weight="750" fill="#173950">UI_QA_CATEGORY</text>
<rect x="61" y="732" width="286" height="44" rx="9" fill="#fff" stroke="#c9d9df"/><text x="73" y="759" font-size="14" fill="#173950">UI QA renamed category</text>
<rect x="364" y="744" width="20" height="20" rx="2" fill="#fff" stroke="#667"/>
<text x="392" y="759" font-size="13" font-weight="650" fill="#173950">Available for new products</text>
<rect x="692" y="736" width="67" height="44" rx="9" fill="#fff" stroke="#bed2d8"/><text x="708" y="763" font-size="14" font-weight="700" fill="#173950">Save</text>
<rect x="49" y="786" width="722" height="74" rx="10" fill="#fff" stroke="#dce7eb"/>
<text x="61" y="806" font-size="15" font-weight="750" fill="#173950">WASTE_BAGS</text>
<rect x="61" y="812" width="286" height="44" rx="9" fill="#fff" stroke="#c9d9df"/><text x="73" y="839" font-size="14" fill="#173950">Waste Bags</text>
<rect x="364" y="824" width="20" height="20" rx="2" fill="#087f83" stroke="none"/><path d="M368 445l4 4 8-10" fill="none" stroke="#fff" stroke-width="2"/>
<text x="392" y="839" font-size="13" font-weight="650" fill="#173950">Available for new products</text>
<rect x="692" y="816" width="67" height="44" rx="9" fill="#fff" stroke="#bed2d8"/><text x="708" y="843" font-size="14" font-weight="700" fill="#173950">Save</text>
</svg>