<svg xmlns="http://www.w3.org/2000/svg" width="390" height="844" viewBox="0 0 390 844" role="img" aria-labelledby="title desc">
  <title id="title">Customer catalog proposal — mobile, 390 by 844</title>
  <desc id="desc">A mobile catalog with a sticky search bar, complete demo notice, horizontal category shortcuts, two product cards with visible actions, and the five-item bottom navigation.</desc>
  <defs>
    <linearGradient id="mobBottle" x1="0" x2="1" y1="0" y2="1"><stop stop-color="#fbf2ff"/><stop offset="1" stop-color="#e3d4ed"/></linearGradient>
    <linearGradient id="mobBag" x1="0" x2="0" y1="0" y2="1"><stop stop-color="#fffdf9"/><stop offset="1" stop-color="#eee4d7"/></linearGradient>
  </defs>
  <rect width="390" height="844" fill="#f4f8fa"/>
  <rect width="390" height="60" fill="#fff"/><path d="M0 59.5h390" stroke="#d7e2e7"/>
  <rect x="12" y="8" width="366" height="44" rx="11" fill="#fff" stroke="#8ba6b3"/><text x="30" y="36" font-family="Inter,system-ui,sans-serif" font-size="15" fill="#77848a">Search products</text>
  <path d="M331 8h36a11 11 0 0 1 11 11v22a11 11 0 0 1-11 11h-36z" fill="#327e83"/><circle cx="352" cy="28" r="6" fill="none" stroke="#fff" stroke-width="1.8"/><path d="m357 33 5 5" stroke="#fff" stroke-width="1.8" stroke-linecap="round"/>
  <rect x="16" y="70" width="358" height="60" rx="12" fill="#fff7e8" stroke="#f1bd62"/>
  <text x="28" y="89" font-family="Inter,system-ui,sans-serif" font-size="11.2" font-weight="750" fill="#674912">Demo — Paws &amp; Whiskers Pet Shop</text>
  <text x="28" y="107" font-family="Inter,system-ui,sans-serif" font-size="10.7" fill="#674912">Demo orders only · No payment, delivery or</text><text x="28" y="122" font-family="Inter,system-ui,sans-serif" font-size="10.7" fill="#674912">automatic messages. Chat opens WhatsApp.</text>

  <g font-family="Inter,system-ui,sans-serif" font-size="11.5" font-weight="700">
    <rect x="16" y="141" width="105" height="44" rx="22" fill="#e7f3f2" stroke="#138187"/><circle cx="37" cy="163" r="14" fill="#327e83"/><path d="m37 155 2 6 6 2-6 2-2 6-2-6-6-2 6-2z" fill="#fff"/><text x="57" y="167" fill="#20666b">All categories</text>
    <rect x="129" y="141" width="158" height="44" rx="22" fill="#fff" stroke="#98aeb8"/><circle cx="150" cy="163" r="14" fill="#e7f3f2"/><text x="150" y="167" text-anchor="middle" fill="#28777b">A</text><text x="171" y="167" fill="#34566a">Automatic Litter Boxes</text>
    <rect x="295" y="141" width="83" height="44" rx="22" fill="#fff" stroke="#98aeb8"/><circle cx="316" cy="163" r="14" fill="#e7f3f2"/><text x="316" y="167" text-anchor="middle" fill="#28777b">C</text><text x="337" y="167" fill="#34566a">Cat Litter</text>
  </g>
  <text x="16" y="216" font-family="Inter,system-ui,sans-serif" font-size="20" font-weight="760" letter-spacing="-.45" fill="#17384e">Browse products</text>
  <text x="16" y="235" font-family="Inter,system-ui,sans-serif" font-size="12" fill="#587482">Products shown: 24</text>

  <!-- These simple package/device drawings are synthetic Demo illustrations. -->
  <g font-family="Inter,system-ui,sans-serif">
    <g>
      <rect x="16" y="245" width="174" height="338" rx="13" fill="#fff" stroke="#d7e3e8"/>
      <rect x="17" y="246" width="172" height="172" rx="12" fill="#e8f4f1"/><circle cx="45" cy="285" r="38" fill="#d7ece6"/><circle cx="177" cy="399" r="39" fill="#dcefea"/>
      <rect x="42" y="305" width="35" height="91" rx="8" fill="url(#mobBottle)" stroke="#b8a7c5"/><rect x="50" y="290" width="19" height="17" rx="4" fill="#243d4e"/>
      <rect x="81" y="283" width="43" height="113" rx="9" fill="url(#mobBottle)" stroke="#b8a7c5"/><rect x="91" y="264" width="23" height="21" rx="5" fill="#243d4e"/>
      <rect x="130" y="304" width="35" height="92" rx="8" fill="url(#mobBottle)" stroke="#b8a7c5"/><rect x="138" y="289" width="19" height="17" rx="4" fill="#243d4e"/>
      <rect x="103" y="328" width="80" height="18" rx="9" fill="#fff" opacity=".94"/><text x="143" y="341" text-anchor="middle" font-size="8" font-weight="750" fill="#587482">ILLUSTRATION</text>
      <text x="27" y="437" font-size="9" font-weight="800" letter-spacing=".35" fill="#00888b">ODOR CONTROL</text>
      <text x="27" y="458" font-size="12.5" font-weight="700" fill="#203f53">PETKIT N50 2.0 Odor</text><text x="27" y="475" font-size="12.5" font-weight="700" fill="#203f53">Eliminator (3 pcs)</text>
      <text x="27" y="498" font-size="11" font-weight="650" fill="#16777b">View details →</text>
      <text x="27" y="522" font-size="16" font-weight="800" fill="#b3472f">MYR 36.90</text>
      <rect x="27" y="533" width="152" height="44" rx="9" fill="#087f83"/><text x="103" y="560" text-anchor="middle" font-size="13" font-weight="750" fill="#fff">Add to cart</text>
    </g>
    <g>
      <rect x="200" y="245" width="174" height="338" rx="13" fill="#fff" stroke="#d7e3e8"/>
      <rect x="201" y="246" width="172" height="172" rx="12" fill="#f6efe7"/><circle cx="236" cy="390" r="40" fill="#efe1d3"/><circle cx="362" cy="284" r="35" fill="#f0e5da"/>
      <path d="M224 295 240 283h89l15 13 8 94q0 10-11 10h-108q-11 0-11-10z" fill="url(#mobBag)" stroke="#c9b8a4" stroke-width="2"/><path d="M237 311h100v53H237z" fill="#b95b39"/><path d="M250 300q38 10 76 0" fill="none" stroke="#d2c2ae" stroke-width="3"/>
      <text x="287" y="333" text-anchor="middle" font-size="9" font-weight="800" fill="#fff">TOFU LITTER</text><text x="287" y="348" text-anchor="middle" font-size="7.5" font-weight="650" fill="#fff">MIXED NATURAL FIBER</text>
      <rect x="278" y="374" width="83" height="18" rx="9" fill="#fff" opacity=".94"/><text x="319.5" y="387" text-anchor="middle" font-size="8" font-weight="750" fill="#587482">ILLUSTRATION</text>
      <text x="211" y="437" font-size="9" font-weight="800" letter-spacing=".35" fill="#00888b">CAT LITTER</text>
      <text x="211" y="458" font-size="12.5" font-weight="700" fill="#203f53">PETKIT / Pidan 5-in-1</text><text x="211" y="475" font-size="12.5" font-weight="700" fill="#203f53">Mixed Tofu Cat Litter</text>
      <text x="211" y="498" font-size="11" font-weight="650" fill="#16777b">View details →</text>
      <text x="211" y="522" font-size="16" font-weight="800" fill="#b3472f">MYR 73.90</text>
      <rect x="211" y="533" width="152" height="44" rx="9" fill="#087f83"/><text x="287" y="560" text-anchor="middle" font-size="13" font-weight="750" fill="#fff">Add to cart</text>
    </g>
  </g>

  <rect y="779" width="390" height="65" fill="#fff" stroke="#d7e2e7"/>
  <g font-family="Inter,system-ui,sans-serif" text-anchor="middle">
    <rect x="4" y="783" width="72" height="55" rx="9" fill="#e7f3f2"/>
    <rect x="30" y="789" width="21" height="21" rx="4" fill="none" stroke="#087f83" stroke-width="1.8"/><path d="M34 793h13v13H34zM37 793l1.5-3h5l1.5 3" fill="none" stroke="#087f83" stroke-width="1.4" stroke-linejoin="round"/>
    <text x="40" y="828" font-size="10" font-weight="700" fill="#20666b">Home</text>
    <path d="M108 791h17M108 800h17M108 809h17M103 791h1M103 800h1M103 809h1" stroke="#607986" stroke-width="1.6" stroke-linecap="round"/>
    <text x="115" y="828" font-size="10" fill="#607986">Category</text>
    <path d="M175 792h4l3 13h15l3-9h-19M184 813a1.5 1.5 0 1 0 0 .1M195 813a1.5 1.5 0 1 0 0 .1" fill="none" stroke="#607986" stroke-width="1.7" stroke-linecap="round" stroke-linejoin="round"/>
    <text x="185" y="828" font-size="10" fill="#607986">Cart</text>
    <circle cx="262" cy="801" r="10" fill="none" stroke="#607986" stroke-width="1.6"/><path d="M252 801h20M262 791c4 4 4 16 0 20M262 791c-4 4-4 16 0 20" fill="none" stroke="#607986" stroke-width="1.3"/>
    <text x="262" y="828" font-size="10" fill="#607986">Language</text>
    <circle cx="337" cy="798" r="5" fill="none" stroke="#607986" stroke-width="1.6"/><path d="M327 814v-2a10 10 0 0 1 20 0v2" fill="none" stroke="#607986" stroke-width="1.6" stroke-linecap="round"/>
    <text x="337" y="828" font-size="10" fill="#607986">Account</text>
  </g>
</svg>
